# xmcd
#
# Track frame offsets: 
#        150
#        30864
#        52069
#        70673
#        95167
#        110901
#        136686
#        166500
#        191063
#        209215
#        225490
#        243602
#        272366
#        297307
#        319881
#        339418
#
# Disc length: 4776 seconds
#
# Revision: 0
# Processed by: cddbd v1.5.2PL0 Copyright (c) Steve Scherf et al.
# Submitted via: ExactAudioCopy v0.95a5
#
DISCID=ec12a610
DTITLE=Various Artist - Blues Instrumental -3  CD1
DYEAR=2009
DGENRE=Blues
TTITLE0=STEVIE RAY VAUGHAN - Little Wing
TTITLE1=MELVIN TAYLOR - Comin' Home Baby
TTITLE2=CHRIS DUARTE - C-Butt Rock
TTITLE3=VARGAS BLUES BAND - Buenos Aires Blues
TTITLE4=B.B.KING - Blues Boy's Tune
TTITLE5=WALTER TROUT - Marie's Mood
TTITLE6=BUDDY GUY - Remembering Stevie
TTITLE7=TINO GONZALES - Weeping for Nicki
TTITLE8=SMOKIN' JOE KUBEK - Spanish Trace
TTITLE9=SNOWY WHITE - Softly
TTITLE10=VAN WILKS - Valley of Fires
TTITLE11=STANLEY JORDAN - Riviera Paradise
TTITLE12=JAN AKKERMAN - Key to the Highway
TTITLE13=DAVE MENIKETTI - Until the Next Time
TTITLE14=COLIN JAMES - Speechless
TTITLE15=JIMMY THACKERY - Blues for Dawn
EXTD=
EXTT0=
EXTT1=
EXTT2=
EXTT3=
EXTT4=
EXTT5=
EXTT6=
EXTT7=
EXTT8=
EXTT9=
EXTT10=
EXTT11=
EXTT12=
EXTT13=
EXTT14=
EXTT15=
PLAYORDER=
